HIERARCHY
ROOT root
{
	OFFSET 0.000000 0.000000 0.000000
	CHANNELS 6 Xposition Yposition Zposition Zrotation Yrotation Xrotation
	JOINT lhip
	{
		OFFSET 0.058581 -0.082280 -0.017664
		CHANNELS 3 Zrotation Yrotation Xrotation
		JOINT lknee
		{
			OFFSET 0.043451 -0.386469 0.008037
			CHANNELS 3 Zrotation Yrotation Xrotation
			JOINT lankle
			{
				OFFSET -0.014790 -0.426874 -0.037428
				CHANNELS 3 Zrotation Yrotation Xrotation
				JOINT ltoe
				{
					OFFSET 0.041054 -0.060286 0.122042
					CHANNELS 3 Zrotation Yrotation Xrotation
					End Site
					{
						OFFSET 0.000000 0.000000 0.000000
					}
				}
			}
		}
	}
	JOINT rhip
	{
		OFFSET -0.060310 -0.090513 -0.013543
		CHANNELS 3 Zrotation Yrotation Xrotation
		JOINT rknee
		{
			OFFSET -0.043257 -0.383688 -0.004843
			CHANNELS 3 Zrotation Yrotation Xrotation
			JOINT rankle
			{
				OFFSET 0.019056 -0.420046 -0.034562
				CHANNELS 3 Zrotation Yrotation Xrotation
				JOINT rtoe
				{
					OFFSET -0.034840 -0.062106 0.130323
					CHANNELS 3 Zrotation Yrotation Xrotation
					End Site
					{
						OFFSET 0.000000 0.000000 0.000000
					}
				}
			}
		}
	}
	JOINT lowerback
	{
		OFFSET 0.004439 0.124404 -0.038385
		CHANNELS 3 Zrotation Yrotation Xrotation
		JOINT upperback
		{
			OFFSET 0.004488 0.137956 0.026820
			CHANNELS 3 Zrotation Yrotation Xrotation
			JOINT chest
			{
				OFFSET -0.002265 0.056032 0.002855
				CHANNELS 3 Zrotation Yrotation Xrotation
				JOINT lowerneck
				{
					OFFSET -0.013390 0.211636 -0.033468
					CHANNELS 3 Zrotation Yrotation Xrotation
					JOINT upperneck
					{
						OFFSET 0.010113 0.088937 0.050410
						CHANNELS 3 Zrotation Yrotation Xrotation
						End Site
						{
							OFFSET 0.000000 0.000000 0.000000
						}
					}
				}
				JOINT lclavicle
				{
					OFFSET 0.071702 0.114000 -0.018898
					CHANNELS 3 Zrotation Yrotation Xrotation
					JOINT lshoulder
					{
						OFFSET 0.122921 0.045205 -0.019046
						CHANNELS 3 Zrotation Yrotation Xrotation
						JOINT lelbow
						{
							OFFSET 0.255332 -0.015649 -0.022946
							CHANNELS 3 Zrotation Yrotation Xrotation
							JOINT lwrist
							{
								OFFSET 0.265709 0.012698 -0.007375
								CHANNELS 3 Zrotation Yrotation Xrotation
								End Site
								{
									OFFSET 0.000000 0.000000 0.000000
								}
							}
						}
					}
				}
				JOINT rclavicle
				{
					OFFSET -0.082954 0.112472 -0.023707
					CHANNELS 3 Zrotation Yrotation Xrotation
					JOINT rshoulder
					{
						OFFSET -0.113228 0.046853 -0.008472
						CHANNELS 3 Zrotation Yrotation Xrotation
						JOINT relbow
						{
							OFFSET -0.260127 -0.014369 -0.031269
							CHANNELS 3 Zrotation Yrotation Xrotation
							JOINT rwrist
							{
								OFFSET -0.269108 0.006794 -0.006027
								CHANNELS 3 Zrotation Yrotation Xrotation
								End Site
								{
									OFFSET 0.000000 0.000000 0.000000
								}
							}
						}
					}
				}
			}
		}
	}
}
MOTION
Frames: 13
Frame Time: 0.033333
0.151131 0.488367 0.997234 86.909638 2.044786 82.951312 6.075251 7.334199 13.192943 -3.668471 -0.354198 0.567821 3.785575 14.570045 -11.812364 0.000000 -0.000000 0.000000 0.676401 2.028800 -7.819691 1.124484 0.163151 23.447237 2.046615 -5.526948 -11.513780 0.000000 -0.000000 0.000000 -2.780773 -4.595172 8.978003 1.520372 -3.795130 3.094007 -1.517914 -3.113316 4.479318 5.989292 -16.607057 2.952347 8.346970 -22.584470 3.262955 -22.180397 1.898324 2.892417 -56.769865 -8.008304 8.049197 6.588233 -23.316727 7.624363 -8.220270 -5.667987 -6.143170 20.880151 1.503879 0.624113 61.411048 3.605695 13.168989 -8.359200 27.327537 4.868832 10.430648 1.097054 -6.273988 
0.155038 0.481644 0.997823 87.573698 1.984606 83.035183 6.359791 7.020559 12.499659 -3.506867 -0.196701 2.136432 3.619246 14.251999 -12.266076 0.000000 -0.000000 0.000000 0.970632 1.722136 -7.245922 1.082243 -0.244701 23.025665 1.505831 -5.316182 -11.743816 0.000000 -0.000000 0.000000 -2.364738 -4.462838 8.859070 1.532268 -3.987021 2.987691 -1.575899 -3.075871 4.438419 5.964291 -16.853516 2.802328 8.374445 -22.593476 3.378377 -22.195416 1.867556 2.950106 -57.039060 -7.751737 8.052536 6.861593 -23.815166 7.884848 -8.176535 -5.706931 -6.678515 20.647183 1.632652 0.624240 61.596315 3.691051 13.217216 -8.541402 28.164335 5.299640 10.288035 1.233673 -6.895832 
0.158605 0.475350 0.998354 88.173726 1.818721 83.132720 6.525100 6.703818 11.786580 -3.418347 -0.064790 3.688124 3.355471 14.035465 -12.709696 0.000000 -0.000000 0.000000 1.103508 1.539217 -6.738858 1.186690 -0.520942 22.600128 1.194632 -5.361474 -11.943981 0.000000 -0.000000 0.000000 -2.015280 -4.373437 8.705491 1.487762 -4.045401 2.972732 -1.646039 -3.051348 4.388070 5.944842 -17.118584 2.719264 8.439908 -22.630133 3.352158 -22.298420 1.841240 3.053834 -57.140775 -7.707136 7.993316 7.100029 -24.247544 7.800523 -8.103660 -5.709198 -6.932062 20.415925 1.801159 0.610953 61.717205 3.868438 13.212700 -8.548903 28.887725 5.477364 10.157164 1.310374 -7.127243 
0.162468 0.467919 0.998916 88.833402 1.528010 83.271497 6.708916 6.370905 10.966511 -3.470282 0.126457 5.392050 2.999205 13.731157 -13.075250 0.000000 -0.000000 0.000000 1.144138 1.329318 -6.261103 1.345774 -0.849414 22.148054 0.819161 -5.409834 -12.202772 0.000000 -0.000000 0.000000 -1.644638 -4.220580 8.583707 1.412521 -4.061011 2.955233 -1.742615 -2.986426 4.274117 5.884811 -17.460500 2.663774 8.530265 -22.777319 3.325894 -22.410773 1.708002 3.174156 -57.199966 -7.726949 7.937778 7.369210 -24.701983 7.619541 -7.982858 -5.792967 -7.249932 20.154919 2.080339 0.633728 61.771365 4.091278 13.214514 -8.491330 29.716857 5.724362 10.006040 1.450849 -7.334074 
0.164426 0.463713 0.999247 89.200269 1.316967 83.374242 6.814436 6.202613 10.498756 -3.594834 0.209018 6.285325 2.789638 13.546267 -13.196007 0.000000 -0.000000 0.000000 1.124911 1.207499 -6.068849 1.434519 -1.019334 21.920712 0.583473 -5.466232 -12.331326 0.000000 -0.000000 0.000000 -1.475297 -4.111670 8.525814 1.367911 -4.051515 2.948297 -1.791674 -2.939170 4.191335 5.835055 -17.665309 2.649891 8.584816 -22.909226 3.314235 -22.459836 1.579291 3.231579 -57.205387 -7.775791 7.926816 7.497503 -24.938423 7.531715 -7.903527 -5.854382 -7.408439 20.022235 2.284790 0.668062 61.745406 4.231764 13.225689 -8.427639 30.134206 5.902738 9.947184 1.525043 -7.405422 
0.166543 0.458588 0.999730 89.701359 1.001226 83.532567 6.935295 5.963622 9.838849 -3.865216 0.253320 7.470750 2.542486 13.343728 -13.418157 0.000000 -0.000000 0.000000 1.058811 1.061020 -5.919281 1.528531 -1.218760 21.683569 0.268367 -5.606852 -12.462796 0.000000 -0.000000 0.000000 -1.308036 -3.968030 8.469757 1.312485 -4.048167 2.908670 -1.845039 -2.890203 4.089316 5.751067 -17.927691 2.644032 8.642243 -23.090999 3.340536 -22.491928 1.374159 3.298925 -57.223935 -7.869627 7.943136 7.657049 -25.240308 7.461454 -7.763053 -5.927076 -7.588190 19.844886 2.587203 0.715673 61.674350 4.421359 13.267166 -8.311669 30.572574 6.189648 9.861911 1.601544 -7.449257 
0.168076 0.454203 1.000219 90.254298 0.673512 83.668267 7.026369 5.677651 9.090643 -4.215518 0.261743 8.889981 2.329440 13.232234 -14.066511 0.000000 -0.000000 0.000000 0.947236 0.927321 -5.820754 1.607976 -1.405129 21.512706 -0.003957 -5.813330 -12.593625 0.000000 -0.000000 0.000000 -1.176675 -3.841663 8.499061 1.260884 -4.092511 2.793519 -1.892259 -2.872550 4.012141 5.665676 -18.157547 2.627307 8.677257 -23.211423 3.459649 -22.492333 1.155670 3.367747 -57.267276 -7.967796 7.966388 7.796270 -25.565335 7.463735 -7.571575 -6.003111 -7.792596 19.656634 2.882547 0.739998 61.574268 4.588003 13.317393 -8.156498 30.934790 6.521796 9.709236 1.674447 -7.483427 
0.169145 0.450658 1.000607 90.800810 0.356604 83.706605 7.060290 5.437427 8.306780 -4.570786 0.378984 10.750281 2.200701 13.263314 -15.232811 0.000000 -0.000000 0.000000 0.803962 0.783743 -5.702304 1.660542 -1.561337 21.439896 -0.198114 -6.010373 -12.754753 0.000000 -0.000000 0.000000 -1.063366 -3.722707 8.662726 1.215714 -4.169487 2.626897 -1.937642 -2.879801 3.973161 5.605246 -18.360841 2.595130 8.703742 -23.253184 3.628173 -22.492102 0.928146 3.433217 -57.307622 -8.055626 7.958304 7.895648 -25.956144 7.520923 -7.360895 -6.071676 -8.028824 19.475203 3.154388 0.739395 61.425182 4.731418 13.336705 -7.966471 31.303199 6.844112 9.528205 1.715105 -7.534111 
0.169885 0.447918 1.000809 91.207971 0.077330 83.635595 7.020831 5.366385 7.579732 -4.823388 0.920727 13.235419 2.299908 13.501672 -16.474341 0.000000 -0.000000 0.000000 0.696429 0.674784 -5.593891 1.635293 -1.658062 21.533028 -0.353323 -6.165345 -12.940265 0.000000 -0.000000 0.000000 -0.966490 -3.616763 8.921347 1.186223 -4.203228 2.458946 -1.976059 -2.875394 3.990605 5.573213 -18.547723 2.535295 8.711633 -23.209549 3.806889 -22.504521 0.698459 3.475390 -57.341547 -8.139679 7.917364 7.953962 -26.394431 7.627340 -7.163670 -6.124024 -8.214078 19.327530 3.418481 0.730690 61.215102 4.884990 13.338567 -7.777192 31.660563 7.103034 9.314851 1.713610 -7.546850 
0.170858 0.445054 1.000917 91.177527 0.102465 83.420810 7.341434 5.510684 7.060877 -4.529173 3.411630 17.226409 -0.563801 12.400151 -18.941933 0.000000 -0.000000 0.000000 1.335139 1.258650 -5.484626 0.390969 -2.745924 22.087046 0.289404 -5.272214 -13.639414 0.000000 -0.000000 0.000000 -0.621436 -3.305605 8.552556 1.193310 -4.499459 4.410590 -1.844706 -2.321879 2.760076 5.338121 -17.855382 3.472607 10.053552 -23.709374 2.172067 -22.584140 0.115486 3.587380 -57.742445 -8.150954 9.601346 9.430857 -26.353826 6.984607 -7.779520 -8.848965 -10.527250 19.035914 2.900105 1.075632 61.509908 5.652695 13.001533 -8.839474 32.058510 10.527226 13.622688 3.500787 -9.305488 
0.171326 0.444280 1.000691 91.254217 0.055077 83.285823 7.199895 5.512853 6.940745 -4.337792 4.347293 19.981235 -0.646635 12.760475 -18.885785 0.000000 -0.000000 0.000000 1.415673 1.318694 -5.404255 0.259040 -2.814548 22.306712 0.065666 -5.318014 -13.801708 0.000000 -0.000000 0.000000 -0.400518 -3.301718 8.714633 1.226145 -4.481502 4.393641 -1.890632 -2.307165 2.735753 5.256431 -17.883866 3.595474 9.989249 -23.399575 2.250378 -22.607908 0.014660 3.612860 -57.852388 -8.024027 9.659798 9.486760 -26.856333 7.251653 -7.631425 -8.923590 -10.725213 18.889717 3.088258 1.050537 61.413804 5.682685 13.066233 -8.852182 32.338271 10.879224 13.406138 3.495734 -9.482707 
0.171715 0.444098 1.000324 91.352767 0.105053 83.256880 6.998538 5.463346 7.079551 -4.113034 4.876212 21.730121 -1.020166 12.868683 -17.954190 0.000000 -0.000000 0.000000 1.526949 1.379349 -5.404752 0.165794 -2.923028 22.439147 -0.133748 -5.354382 -13.891521 0.000000 -0.000000 0.000000 -0.141387 -3.368879 8.675790 1.296493 -4.507362 4.408169 -1.915554 -2.344518 2.675355 5.142169 -17.772280 3.687317 9.836427 -23.059670 2.399682 -22.693551 -0.033999 3.667314 -57.940447 -7.934747 9.736490 9.456350 -27.103423 7.427228 -7.601255 -8.994571 -10.743885 18.851774 3.169040 1.043185 61.213311 5.753605 13.092208 -8.795073 32.450016 11.094815 13.250508 3.494181 -9.547787 
0.171930 0.444403 0.999837 91.415879 0.229631 83.330383 6.762759 5.517283 7.606147 -3.846194 5.057465 21.658056 -1.579532 12.874496 -16.882559 0.000000 -0.000000 0.000000 1.691923 1.499042 -5.547139 0.046921 -3.049730 22.586638 -0.248129 -5.400544 -13.955323 0.000000 -0.000000 0.000000 0.090442 -3.510880 8.516477 1.391403 -4.508398 4.397526 -1.878884 -2.397828 2.594682 5.052096 -17.498281 3.730828 9.605625 -22.694042 2.597593 -22.772486 -0.059249 3.736892 -58.104489 -7.850161 9.841390 9.410639 -27.099610 7.518979 -7.647043 -9.086962 -10.655928 18.847312 3.168100 1.062973 61.009025 5.808838 13.121583 -8.717374 32.471746 11.239871 13.158075 3.529141 -9.576098 
